# xmcd
#
# Track frame offsets: 
#        150
#        18011
#        33009
#        47170
#        63053
#        78381
#        97233
#        112465
#        127653
#        142680
#        145126
#
# Disc length: 2319 seconds
#
# Revision: 1
# Processed by: cddbd v1.5.2PL0 Copyright (c) Steve Scherf et al.
# Submitted via: ExactAudioCopy v0.99pb5
#
DISCID=87090d0b
DTITLE=Collin Herring - Past Life Crashing
DYEAR=2007
DGENRE=Indie
TTITLE0=Cellophane
TTITLE1=Beside
TTITLE2=Yard Cars
TTITLE3=Pictures
TTITLE4=Sidekick
TTITLE5=One Last Morning
TTITLE6=I Guess
TTITLE7=Sandstorm
TTITLE8=Punches
TTITLE9=Overhear
TTITLE10=Dishes
EXTD=
EXTT0=
EXTT1=
EXTT2=
EXTT3=
EXTT4=
EXTT5=
EXTT6=
EXTT7=
EXTT8=
EXTT9=
EXTT10=
PLAYORDER=
